<?xml version="1.0" encoding="UTF-8"?>
<svg id="Layer_2" data-name="Layer 2" xmlns="http://www.w3.org/2000/svg" viewBox="0 0 366.374 443.9588">
  <defs>
    <style>
      .cls-1 {
        fill: #ff805f;
      }

      .cls-2 {
        fill: #8fc64f;
      }

      .cls-3 {
        fill: #5b3b1d;
        stroke: #5b3b1d;
        stroke-linecap: round;
        stroke-linejoin: round;
        stroke-width: .25px;
      }
    </style>
  </defs>
  <g id="katman_1" data-name="katman 1">
    <g>
      <g>
        <path class="cls-2" d="M181.8533,141.5484c-15.0611-34.1717-41.3642-63.2765-73.8413-81.7087C75.5349,41.4067,37.0602,33.7486,0,38.3384c6.4048,36.9957,29.6705,70.7289,61.9749,89.8614,32.3051,19.1333,73.0687,23.3215,108.5894,11.1571"/>
        <path class="cls-2" d="M182.3179,140.7382c-22.2358-42.8582-27.9655-94.0235-15.7591-140.7382,12.8329,44.8368,18.0128,91.854,15.2472,138.4094"/>
      </g>
      <path class="cls-3" d="M173.6979,171.1142s-15.3981-64.8527,48.5444-100.5901c1.1701-.6535,2.7005-.2472,3.379,.9086l13.9545,23.7877c.7477,1.2746,.2497,2.8955-1.1109,3.4716-11.57,4.9008-58.3313,27.7036-52.4648,74.0451"/>
      <path class="cls-1" d="M239.1642,154.46c32.3929-13.13,69.4656-14.6596,96.3008,14.8859,26.8352,29.5455,37.9379,80.1804,26.3433,120.144-9.8379,33.9092-33.0622,57.2679-55.3515,79.0506-23.257,22.7283-46.514,45.4574-69.7719,68.1864-13.8803,13.5653-27.4703,3.8847-27.4703,3.8847-28.648-15.3869-57.2967-30.7745-85.9447-46.1621-27.4551-14.7472-56.2467-30.7492-75.1027-60.5999-22.2222-35.1805-25.5973-86.908-8.0084-122.7371,17.5888-35.8284,54.8429-53.1117,88.3953-41.0082,0,0,43.3228,11.631,110.61-15.6444Z"/>
    </g>
  </g>
</svg>