g<?xml version="1.0" encoding="UTF-8"?>
<svg id="Layer_2" data-name="Layer 2" xmlns="http://www.w3.org/2000/svg" viewBox="0 0 287.4279 424.7356">
  <defs>
    <style>
      .cls-1 {
        fill: #fb8800;
      }

      .cls-2 {
        fill: #7ca931;
      }

      .cls-3 {
        fill: #d96c00;
      }

      .cls-4 {
        fill: #5b3b1d;
        stroke: #5b3b1d;
        stroke-linecap: round;
        stroke-linejoin: round;
        stroke-width: .25px;
      }
    </style>
  </defs>
  <g id="katman_1" data-name="katman 1">
    <g>
      <path class="cls-2" d="M174.7032,122.2637c5.181-8.6026-1.2572-19.7724-9.2562-25.8432-15.8787-12.0493-37.0479-14.1159-56.9799-14.2659-19.9327-.1498-40.4798,1.0706-59.168-5.8623,17.7642,15.0647,35.8919,30.3556,57.3473,39.4215,21.4547,9.0661,47.1501,11.1035,67.4685-.2833"/>
      <path class="cls-2" d="M179.1559,104.3844c-15.1482-12.3367-24.8995-31.0794-26.3067-50.5646-1.4072-19.4852,5.5502-39.435,18.7685-53.8198-3.746,10.8438,.1396,22.8033,5.2169,33.0918,5.0771,10.2878,11.4759,20.2887,13.0757,31.6498,2.1468,15.2462-4.6957,30.2303-12.1685,43.6919"/>
      <circle class="cls-1" cx="143.714" cy="281.0216" r="143.6785" transform="translate(-156.6194 183.9305) rotate(-45)"/>
      <path class="cls-4" d="M167.6482,139.2647s2.472-42.3145,31.8359-64.5249c1.7412-1.3173,4.2671-.6806,5.3094,1.2375l4.959,9.1237c1.0447,1.9217,.2016,4.3183-1.8348,5.1146-8.4201,3.2903-27.8134,14.657-33.2282,50.5852l-7.0413-1.5362Z"/>
      <g>
        <path class="cls-3" d="M42.116,332.5501c-4.6508-1.2317-6.5723,5.993-1.9139,7.2267,4.6499,1.2314,6.5714-5.9933,1.9139-7.2267Z"/>
        <path class="cls-3" d="M60.0063,328.2647c-4.6499-1.2314-6.5714,5.9933-1.9136,7.2273,4.6506,1.2311,6.572-5.9937,1.9136-7.2273Z"/>
        <path class="cls-3" d="M54.0176,346.013c-4.6499-1.2314-6.5714,5.9933-1.9136,7.2273,4.6499,1.2314,6.5714-5.9934,1.9136-7.2273Z"/>
      </g>
      <g>
        <path class="cls-3" d="M231.0873,198.5883c.7537-4.7518-6.6285-5.9314-7.3836-1.1722-.754,4.7511,6.6283,5.9307,7.3836,1.1722Z"/>
        <path class="cls-3" d="M237.1627,215.9524c.7543-4.7505-6.6283-5.9307-7.3833-1.1716-.7547,4.7514,6.6283,5.9307,7.3833,1.1716Z"/>
        <path class="cls-3" d="M218.899,211.7929c.754-4.7512-6.6283-5.9307-7.3842-1.1719-.7534,4.7509,6.6289,5.9304,7.3842,1.1719Z"/>
      </g>
    </g>
  </g>
</svg>