<?xml version="1.0" encoding="UTF-8"?>
<svg id="Layer_2" data-name="Layer 2" xmlns="http://www.w3.org/2000/svg" viewBox="0 0 215.1169 414.9269">
  <defs>
    <style>
      .cls-1 {
        fill: #e2e24b;
      }

      .cls-2 {
        fill: #8fc64f;
      }

      .cls-3 {
        fill: #5b3b1d;
        stroke: #5b3b1d;
        stroke-linecap: round;
        stroke-linejoin: round;
        stroke-width: .25px;
      }
    </style>
  </defs>
  <g id="katman_1" data-name="katman 1">
    <g>
      <path class="cls-2" d="M92.0858,101.3774c9.7475,1.7333,18.126-7.9877,20.1712-17.6743,2.0446-9.6863,.0967-19.7921,1.3001-29.6183,1.7341-14.1552,10.075-26.9836,21.1004-36.0282,11.0254-9.0447,24.567-14.5883,38.3997-18.0565-5.5307,16.2086-8.6602,33.2337-9.2543,50.3492-.4214,12.1283,.1648,25.2055-6.6428,35.2506-5.2064,7.6817-13.9265,12.2033-22.6412,15.3887-15.2337,5.5668-31.6051,7.9958-47.7978,7.0923"/>
      <path class="cls-3" d="M90.5009,124.7701s-9.1837-46.4102-44.0768-51.0711l13.0531-21.196s35.0268,12.4168,40.7134,74.3574"/>
      <path class="cls-1" d="M146.5733,146.2868c7.7895,12.875,8.3513,28.2207,11.9131,42.5695,11.2519,45.3258,52.9862,82.1153,56.4234,128.5347,2.3264,31.4146-15.1159,63.6034-44.0916,81.3672-17.2067,10.549-38.0878,15.7248-58.7503,15.3576-20.5212,2.4408-41.8151-.6109-59.9949-9.3778C21.4596,389.975,.8714,359.7018,.03,328.2119c-1.244-46.5294,36.5841-87.3254,43.2255-133.5524,2.102-14.6347,1.1193-29.9589,7.5753-43.5507,0,0,9.7481-28.7312,46.481-30.0186,36.7334-1.2878,49.2614,25.1966,49.2614,25.1966Z"/>
    </g>
  </g>
</svg>